<?xml version="1.0" encoding="UTF-8" standalone="no"?><!DOCTYPE svg PUBLIC "-//W3C//DTD SVG 1.1//EN" "http://www.w3.org/Graphics/SVG/1.1/DTD/svg11.dtd"><svg width="100%" height="100%" viewBox="0 0 20118 4494" version="1.1" xmlns="http://www.w3.org/2000/svg" xmlns:xlink="http://www.w3.org/1999/xlink" xml:space="preserve" xmlns:serif="http://www.serif.com/" style="fill-rule:evenodd;clip-rule:evenodd;stroke-linejoin:round;stroke-miterlimit:2;"><rect id="Seite-2" serif:id="Seite 2" x="0" y="0" width="20117.5" height="4493.75" style="fill:none;"/><g id="Ebene-1" serif:id="Ebene 1"><path d="M15812.639,2512.034l636.48,0l14.829,-25.365l-330.355,-768.651l-320.955,794.015Zm1436.079,794.207l-471.695,-9.861l-169.688,-431.205l-940.121,-3.526l-180.52,439.634l-446.478,-5.945l859.914,-2077.55l484.035,-0.801l864.554,2089.253Z" style="fill:#fff;fill-rule:nonzero;"/><path d="M4843.024,2123.191c-460.112,66.338 -430.843,891.789 115.553,844.41c534.32,-46.336 490.632,-931.807 -115.553,-844.41m905.642,-1003.794l0,2175.997c-120.001,-17.001 -260.453,24.931 -375.907,11.435c-15.839,-1.848 -27.981,-1.36 -37.529,-16.875l0,-163.2l-21.762,-10.985c-98.837,106.778 -233.481,185.132 -378.09,209.531c-854.435,144.143 -1195.424,-1098.984 -467.05,-1478.889c325.946,-170.006 554.71,-110.996 823.378,105.32c11.764,9.471 13.425,24.35 27.46,5.457l-6.252,-800.262l16.875,-37.529l418.876,0Z" style="fill:#fff;fill-rule:nonzero;"/><path d="M9480.7,2664.422l15.806,0.159c18.91,6.548 78.946,81.035 98.305,97.614c54.832,46.945 128.852,88.39 179.538,135.988c18.581,17.451 46.611,37.419 44.017,64.55c-0.554,5.797 -71.871,72.836 -82.522,82.083c-638.63,554.71 -1777.879,277.487 -1918.495,-604.99c-165.838,-1040.752 1056.541,-1603.666 1857.993,-1041.997c24.63,17.259 155.884,118.761 152.501,138.922l-304.047,284.764c-36.783,16.974 -64.895,-38.05 -92.585,-59.872c-206.68,-162.926 -435.773,-221.026 -692.902,-138.68c-733.212,234.808 -546.582,1385.36 312.339,1302.417c140.918,-13.606 363.792,-132.867 430.053,-260.957" style="fill:#fff;fill-rule:nonzero;"/><path d="M11009.132,2664.353l-413.436,0c-70.445,0 -168.037,75.858 -178.496,147.839c-36.448,250.872 278.403,254.146 444.926,183.876c53.85,-22.721 139.87,-105.599 151.98,-163.54c3.439,-16.453 13.645,-115.334 12.345,-130.191c-1.409,-16.146 -2.358,-28.386 -17.319,-37.984m440.638,641.921l-397.115,0l-16.321,-16.321l0,-157.76l-134.161,99.759c-321.849,200.817 -938.334,97.537 -932.482,-365.745c4.239,-335.691 321.58,-434.72 603.789,-452.549c121.427,-7.672 304.672,20.319 413.825,0.417c44.828,-8.177 14.736,-97.685 2.495,-132.949c-83.108,-239.536 -474.196,-178.238 -660.139,-111.281c-41.033,14.775 -80.224,31.946 -114.868,59c-22.442,-37.046 -176.165,-288.17 -163.535,-304.562c248.042,-111.369 508.302,-181.2 783.683,-162.855c412.257,27.465 595.721,230.98 615.278,635.921c14.424,298.645 -11.687,609.119 -0.45,908.927" style="fill:#fff;fill-rule:nonzero;"/><path d="M6466.744,1793.956l0,908.477c0,16.206 29.439,104.826 39.179,124.021c110.118,216.979 461.198,145.19 561.182,-45.898c9.773,-18.685 41.56,-96.133 41.56,-110.765l0,-859.514l16.316,-16.321l413.441,0l15.498,1494.448c-5.764,18.208 -21.778,16.617 -36.739,18.383c-119.694,14.144 -260.656,-19.085 -380.464,9.186l-17.177,-15.142l0,-163.2c0,-2.068 -11.665,-32.165 -16.261,-38.028c-253.762,295.623 -759.103,335 -982.761,-18.306c-50.466,-79.719 -99.852,-231.139 -99.852,-324.465l0,-946.554l16.321,-16.321l429.757,0Z" style="fill:#fff;fill-rule:nonzero;"/><path d="M11658.383,3141.172c-21.679,-36.569 127.163,-250.065 139.744,-302.676l15.839,0.137c19.058,19.458 34.891,36.18 59.526,49.358c137.633,73.621 588.131,185.461 702.84,59.718c156.586,-171.652 -299.484,-221.635 -386.799,-245.201c-178.139,-48.075 -401.497,-111.506 -469.803,-302.676c-84.024,-235.148 44.082,-469.326 263.535,-567.423c294.274,-131.54 711.582,-84.885 984.9,81.041c11.978,12.202 -1.623,19.135 -5.353,27.882c-15.433,36.18 -136.404,261.007 -160.058,264.972c-129.527,-84.518 -538.449,-182.554 -650.07,-63.036c-116.974,125.244 74.855,187.276 165.131,213.359c231.413,66.842 649.226,79.165 704.622,383.377c128.381,704.951 -985.882,686.003 -1364.054,401.168" style="fill:#fff;fill-rule:nonzero;"/><path d="M13788.965,2865.633c12.186,59.219 77.361,108.254 137.501,113.327c93.326,7.881 133.838,-38.543 210.612,-64.402c4.108,62.52 26.324,136.498 49.281,195.596c36.602,94.225 101.404,98.623 -38.571,157.826c-238.927,101.047 -611.516,88.236 -741.531,-171.959c-19.502,-39.037 -52.49,-135.368 -52.49,-175.99l0,-783.354l-16.321,-16.321l-206.718,0l-13.974,-16.321c-0.318,-4.42 8.533,-8.177 8.533,-10.881l0,-310.08l228.479,0l0,-391.674l418.876,0c29.478,0 5.495,73.494 4.947,92.026c-2.94,99.567 -0.861,200.965 5.243,300.34c18.811,27.021 291.005,-8.1 349.407,-1.245c15.833,1.859 27.97,1.349 37.523,16.875l0,315.52l-24.548,14.232c-91.982,-3.932 -242.355,-24.652 -329.044,-8.786c-12.186,2.232 -20.358,5.528 -27.207,16.316l0,728.956Z" style="fill:#fff;fill-rule:nonzero;"/><path d="M17901.594,1206.438l0,2088.957l-446.769,6.126l-8.671,-13.091l-2.166,-2064.804c5.155,-29.922 406.301,-12.433 457.606,-17.188" style="fill:#fff;fill-rule:nonzero;"/><path d="M2734.915,2409.241l0,505.352l1147.837,0l16.321,16.321l0,364.478l-1675.516,0l0,-966.889l511.357,80.738Z" style="fill:#fff;fill-rule:nonzero;"/><path d="M3877.312,1217.317l0,380.799l-1131.516,0l0,488.076l-522.238,49.753l0,-913.188l1653.754,-5.44Z" style="fill:#fff;fill-rule:nonzero;"/><path d="M3735.872,2076.835l0,342.716l-1512.315,5.44l0,-348.157l1512.315,0Z" style="fill:#fff;fill-rule:nonzero;"/><path d="M8301.732,35.139c51.025,52.265 38.05,261.544 36.816,339.431l-11.281,706.794c0.148,9.581 -4.87,15.208 -10.782,21.86c-21.125,23.769 -162.74,79.05 -195.876,114.089l-9.597,-1081.165c-2.89,-104.831 108.61,-185.11 190.72,-101.009" style="fill:#14e9d4;fill-rule:nonzero;"/><path d="M8290.821,4466.685c-50.494,49.874 -168.515,28.513 -180.596,-45.772c-12.159,-74.756 -0.066,-147.395 -0.154,-216.595c-0.4,-292.524 9.378,-583.969 10.486,-876.23l195.832,81.496l3.477,1004.506c-4.354,32.5 -15.888,39.602 -29.045,52.594" style="fill:#14e9d4;fill-rule:nonzero;"/><path d="M7761.321,1608.912c-17.857,2.945 -10.107,-14.654 -10.744,-26.933c-16.508,-317.012 -41.604,-778.396 -10.749,-1088.054c17.709,-177.75 197.757,-165.295 216.485,-31.776c35.757,254.881 11.621,587.714 1.234,847.898c-11.084,92.174 -170.692,198.272 -196.227,298.864" style="fill:#14e9d4;fill-rule:nonzero;"/><path d="M7923.717,3135.309c12.274,7.327 19.941,20.396 20.445,34.682c0.751,21.449 1.722,51.64 1.695,65.049c-0.466,266.518 29.379,628.205 0.576,881.807c-18.23,160.546 -190.32,144.762 -206.723,-0.027c-29.456,-260.041 10.979,-1147.821 10.979,-1147.821c51.409,63.255 102.49,124.213 173.028,166.31" style="fill:#14e9d4;fill-rule:nonzero;"/><path d="M14602.318,2808.682c176.483,-24.18 309.268,93.825 295.058,273.214c-28.354,357.946 -561.834,300.521 -507.173,-71.986c16.327,-111.297 102.566,-186.218 212.114,-201.228" style="fill:#fff;fill-rule:nonzero;"/><path d="M14864.241,1405.225c63.913,-5.654 86.662,61.133 91.285,110.875c30.427,327.509 9.559,701.326 -0.428,1034.006c-6.362,127.251 -166.743,123.198 -174.772,0.707c-11.599,-330.547 -37.858,-724.239 0.444,-1045.435c5.254,-44.05 36.13,-95.963 83.47,-100.153" style="fill:#14e9d4;fill-rule:nonzero;"/><path d="M7380.662,972.518c12.504,-58.643 109.926,-97.395 168.361,-61.215c16.738,10.36 27.476,58.33 27.476,61.215l0,647.356l-195.837,0l0,-647.356Z" style="fill:#006e79;fill-rule:nonzero;"/><path d="M8501.299,611.777c0,-17.402 4.371,-34.82 14.226,-49.155c20.648,-30.043 47.11,-28.074 68.438,-30.449c182.379,-20.319 102.687,408.078 97.038,435.093c-7.448,12.422 -138.203,49.391 -157.239,50.071c-13.387,0.477 -14.133,-1.799 -22.463,-12.181l0,-393.38Z" style="fill:#14e9d4;fill-rule:nonzero;"/><path d="M8686.317,3534.71c1.377,110.568 19.535,262.597 -2.391,362.185c-16.129,73.264 -126.511,63.941 -165.915,18.257c-54.486,-63.162 -21.339,-324.799 -16.645,-413.041l184.951,32.598Z" style="fill:#14e9d4;fill-rule:nonzero;"/><path d="M15145.962,1828.194c120.769,-32.812 92.975,187.682 92.569,245.694c-0.581,83.657 0,228.331 -13.689,301.864c-12.575,67.528 -120.176,71.427 -130.843,-10.036c-10.524,-80.322 -11.144,-389.919 1.179,-467.785c3.674,-23.226 27.931,-63.53 50.784,-69.738" style="fill:#02a09e;fill-rule:nonzero;"/><path d="M8858.317,765.799c13.464,-48.92 149.49,-73.955 158.215,15.893c13.36,137.556 -25.908,195.837 -158.215,152.747l0,-168.641Z" style="fill:#02a09e;fill-rule:nonzero;"/><path d="M1588.954,1472.038c61.627,-3.23 97.126,44.159 102.188,99.671c39.679,435.17 2.04,929.756 -0.274,1371.644c-13.908,118.718 -171.279,119.447 -193.786,19.211c-17.133,-76.269 0.044,-236.36 -1.848,-324.547c-2.506,-116.71 -0.186,-231.408 0,-347.263c0.335,-211.506 -23.1,-495.31 -0.483,-696.796c5.72,-50.987 34.589,-118.794 94.203,-121.92" style="fill:#14e9d4;fill-rule:nonzero;"/><path d="M1225.979,1853.505c93.545,-17.083 106.822,76.143 112.115,144.746c14.04,182.022 2.802,389.398 -11.835,576.548c-22.058,129.253 -172.589,98.585 -185.137,-20.539c-12.883,-122.26 -15.021,-479.938 1.689,-598.107c5.682,-40.178 41.137,-94.976 83.169,-102.649" style="fill:#14e9d4;fill-rule:nonzero;"/><path d="M869.27,2018.071c74.58,-15.065 104.398,35.401 111.703,101.486c6.351,57.486 9.367,263.551 -0.318,315.284c-14.155,75.595 -129.719,70.385 -168.169,16.398c-46.134,-64.764 -54.656,-410.661 56.784,-433.168" style="fill:#14e9d4;fill-rule:nonzero;"/><path d="M523.427,2220.986c11.665,43.09 -63.771,11.676 -76.045,21.762l21.641,43.408c-80.125,-8.166 -163.661,-0.707 -244.011,-4.673c-78.403,-3.866 -224.991,-3.088 -224.991,-29.779c0,-37.595 342.316,-29.626 523.406,-30.717" style="fill:#02a09e;fill-rule:nonzero;"/><path d="M518.764,2069.075c74.58,-11.802 104.398,27.734 111.703,79.505c6.351,45.037 9.367,206.471 -0.318,247c-14.149,59.219 -129.719,55.139 -168.169,12.844c-46.134,-50.735 -54.656,-321.717 56.784,-339.349" style="fill:#02a09e;fill-rule:nonzero;"/><path d="M1942.696,1899.332c93.545,-15.126 106.822,67.418 112.115,128.161c14.04,161.177 2.802,348.387 -11.835,510.507c-27.525,112.444 -172.589,87.293 -185.137,-18.18c-12.883,-108.259 -15.021,-424.969 1.689,-529.598c5.682,-35.571 41.137,-84.096 83.169,-90.891" style="fill:#006e79;fill-rule:nonzero;"/><path d="M18528.546,1472.038c-61.632,-3.23 -97.126,44.159 -102.188,99.671c-39.679,435.17 -2.04,929.756 0.274,1371.644c13.908,118.718 171.273,119.447 193.786,19.211c17.133,-76.269 -0.044,-236.36 1.848,-324.547c2.506,-116.71 0.186,-231.408 0,-347.263c-0.335,-211.506 23.1,-495.31 0.483,-696.796c-5.72,-50.987 -34.589,-118.794 -94.203,-121.92" style="fill:#14e9d4;fill-rule:nonzero;"/><path d="M18891.521,1853.505c-93.545,-17.083 -106.822,76.143 -112.115,144.746c-14.04,182.022 -2.802,389.398 11.835,576.548c22.058,129.253 172.589,98.585 185.137,-20.539c12.883,-122.26 15.021,-479.938 -1.689,-598.107c-5.682,-40.178 -41.137,-94.976 -83.169,-102.649" style="fill:#14e9d4;fill-rule:nonzero;"/><path d="M19248.231,2018.071c-74.58,-15.065 -104.398,35.401 -111.703,101.486c-6.351,57.486 -9.373,263.551 0.318,315.284c14.149,75.595 129.719,70.385 168.169,16.398c46.134,-64.764 54.656,-410.661 -56.784,-433.168" style="fill:#14e9d4;fill-rule:nonzero;"/><path d="M19594.073,2220.986c-11.665,43.09 63.771,11.676 76.045,21.762l-21.641,43.408c80.125,-8.166 163.661,-0.707 244.016,-4.673c78.392,-3.866 224.986,-3.088 224.986,-29.779c0,-37.595 -342.316,-29.626 -523.406,-30.717" style="fill:#02a09e;fill-rule:nonzero;"/><path d="M19598.735,2069.075c-74.58,-11.802 -104.398,27.734 -111.703,79.505c-6.351,45.037 -9.367,206.471 0.318,247c14.155,59.219 129.719,55.139 168.169,12.844c46.134,-50.735 54.662,-321.717 -56.784,-339.349" style="fill:#02a09e;fill-rule:nonzero;"/><path d="M18174.805,1899.332c-93.545,-15.126 -106.822,67.418 -112.115,128.161c-14.04,161.177 -2.802,348.387 11.835,510.507c27.525,112.444 172.589,87.293 185.137,-18.18c12.883,-108.259 15.021,-424.969 -1.689,-529.598c-5.682,-35.571 -41.137,-84.096 -83.169,-90.891" style="fill:#006e79;fill-rule:nonzero;"/><path d="M7576.501,3958.357c-12.504,45.064 -114.862,73.204 -166.085,37.989c-6.384,-4.387 -29.752,-35.774 -29.752,-37.989l0,-497.471l195.837,0l0,497.471Z" style="fill:#006e79;fill-rule:nonzero;"/><path d="M7086.777,1136.703c0,-43.611 50.005,-61.007 96.83,-61.062c77.734,-0.088 99.007,35.066 99.007,61.062l0,483.174l-195.837,0l0,-483.174Z" style="fill:#006f82;fill-rule:nonzero;"/><path d="M7282.616,3700.463c-12.504,21.701 -114.862,35.253 -166.085,18.295c-6.384,-2.111 -29.752,-17.226 -29.752,-18.295l0,-239.58l195.837,0l0,239.58Z" style="fill:#006f82;fill-rule:nonzero;"/><path d="M9057.535,3520.773c-2.018,66.787 19.535,150.334 -2.391,207.349c-16.124,41.938 -126.505,36.602 -165.91,10.453c-54.492,-36.163 -22.93,-172.244 -18.235,-222.765l186.536,4.963Z" style="fill:#02a09e;fill-rule:nonzero;"/><path d="M14569.867,1687.778c-74.986,-19.222 -85.631,85.68 -89.87,162.877c-11.254,204.826 -2.249,438.175 9.488,648.771c17.681,145.437 138.346,110.935 148.404,-23.111c10.327,-137.578 12.043,-540.062 -1.355,-673.027c-4.552,-45.212 -32.977,-106.872 -66.667,-115.509" style="fill:#006e79;fill-rule:nonzero;"/></g></svg>