<?xml version="1.0" encoding="UTF-8" standalone="no"?><!DOCTYPE svg PUBLIC "-//W3C//DTD SVG 1.1//EN" "http://www.w3.org/Graphics/SVG/1.1/DTD/svg11.dtd"><svg width="100%" height="100%" viewBox="0 0 200 200" version="1.1" xmlns="http://www.w3.org/2000/svg" xmlns:xlink="http://www.w3.org/1999/xlink" xml:space="preserve" xmlns:serif="http://www.serif.com/" style="fill-rule:evenodd;clip-rule:evenodd;stroke-linejoin:round;stroke-miterlimit:2;"><g><path d="M33.307,184.75c-3.266,0 -6.307,-1.703 -8.026,-4.594c-1.969,-3.313 -1.734,-7.427 0.594,-10.479c5.01,-6.568 7.99,-12.281 9.234,-17.755c-22.344,-14.719 -35.094,-36.031 -35.094,-58.854c0,-20.875 10.552,-40.422 29.714,-55.047c18.818,-14.359 43.771,-22.271 70.271,-22.271c26.5,0 51.453,7.911 70.271,22.271c19.161,14.625 29.714,34.172 29.714,55.047c0,20.87 -10.552,40.422 -29.714,55.042c-18.818,14.365 -43.771,22.271 -70.271,22.271c-6.583,0 -13.177,-0.5 -19.62,-1.49c-11.932,7.589 -26.865,12.745 -45.578,15.74c-0.5,0.083 -1,0.12 -1.495,0.12Zm66.693,-160.573c-50.5,-0 -91.578,30.901 -91.578,68.891c-0,20.646 12.214,40.047 33.521,53.229c1.406,0.87 2.172,2.484 1.958,4.125c-1.01,7.802 -4.615,15.547 -11.354,24.375c-0.094,0.125 -0.375,0.495 -0.052,1.042c0.229,0.38 0.557,0.542 0.984,0.469c18.234,-2.917 32.516,-7.938 43.651,-15.344c0.885,-0.589 1.964,-0.818 3.01,-0.646c6.5,1.089 13.182,1.635 19.859,1.635c50.5,0 91.578,-30.901 91.578,-68.885c0,-37.99 -41.078,-68.891 -91.578,-68.891Z" style="fill-rule:nonzero;"/></g></svg>