<?xml version="1.0" encoding="UTF-8" standalone="no"?><!DOCTYPE svg PUBLIC "-//W3C//DTD SVG 1.1//EN" "http://www.w3.org/Graphics/SVG/1.1/DTD/svg11.dtd"><svg width="100%" height="100%" viewBox="0 0 200 200" version="1.1" xmlns="http://www.w3.org/2000/svg" xmlns:xlink="http://www.w3.org/1999/xlink" xml:space="preserve" xmlns:serif="http://www.serif.com/" style="fill-rule:evenodd;clip-rule:evenodd;stroke-linejoin:round;stroke-miterlimit:2;"><path d="M75.333,156.557l44.833,0l0,7.224l-44.833,0l0,-7.224Zm-4.167,15.562l53.167,0c2.302,0 4.161,-1.865 4.161,-4.167l0,-15.568c0,-2.302 -1.859,-4.172 -4.161,-4.172l-53.167,0c-2.302,0 -4.161,1.87 -4.161,4.172l0,15.568c0,2.302 1.859,4.167 4.161,4.167" style="fill:#231f20;fill-rule:nonzero;"/><g><path d="M168.292,20.307c-1.776,11.167 -7.052,35.135 -20.474,44.979c3.99,-11.562 6.646,-27.005 7.401,-48.083c0.073,0.005 0.146,0.026 0.224,0.026l10.203,0c1.083,0 1.75,0.589 2.047,0.938c0.297,0.349 0.771,1.094 0.599,2.141Zm-58.13,73.354c-5.161,2.156 -8.5,7.203 -8.5,12.859l0,11.172c0,5.932 4.818,10.755 10.74,10.755l3.115,0c2.568,0 4.719,1.828 5.234,4.25l-45.995,0c0.51,-2.422 2.661,-4.25 5.229,-4.25l3.115,0c5.922,0 10.74,-4.823 10.74,-10.755l0,-11.531c0,-5.474 -3.141,-10.469 -8,-12.734c-18.547,-8.635 -36.656,-22.375 -37.422,-84.88l98.672,-0c-0.792,70.036 -21.63,78.734 -36.927,85.115Zm25.964,83.62l-76.75,0l0,-36.24l76.75,0l0,36.24Zm6.26,14.161l-89.271,0l0,-5.823l89.271,0l0,5.823Zm-113.641,-171.135c-0.167,-1.047 0.307,-1.792 0.604,-2.141c0.297,-0.349 0.964,-0.938 2.047,-0.938l8.911,0c0.823,20.547 3.661,35.729 7.833,47.208c-12.62,-10.307 -17.667,-33.271 -19.396,-44.13Zm145.286,-7.552c-2.099,-2.458 -5.151,-3.87 -8.385,-3.87l-10.203,0c-0.016,0 -0.026,0.005 -0.042,0.005c0.016,-1.495 0.042,-2.974 0.042,-4.516c0,-2.302 -1.87,-4.172 -4.167,-4.172l-107.052,-0c-2.297,0 -4.161,1.87 -4.161,4.172c0,1.542 0.021,3.021 0.042,4.51l-8.708,0c-3.229,0 -6.286,1.411 -8.385,3.87c-2.089,2.453 -2.995,5.682 -2.49,8.87c2.875,18.042 11.016,48.703 33.385,55.177c7.807,13.167 18.052,19.359 28.422,24.188c1.932,0.901 3.182,2.932 3.182,5.172l0,11.531c0,1.312 -1.104,2.417 -2.411,2.417l-3.115,0c-7.167,0 -13.052,5.557 -13.62,12.589l-11.151,0c-2.302,0 -4.167,1.87 -4.167,4.172l0,40.411l-2.099,0c-2.297,0 -4.161,1.865 -4.161,4.172l0,14.161c0,2.302 1.865,4.172 4.161,4.172l97.599,0c2.302,0 4.167,-1.87 4.167,-4.172l0,-14.161c0,-2.307 -1.865,-4.172 -4.167,-4.172l-2.094,0l0,-40.411c0,-2.302 -1.865,-4.172 -4.161,-4.172l-11.151,0c-0.568,-7.031 -6.458,-12.589 -13.625,-12.589l-3.115,0c-1.328,0 -2.411,-1.083 -2.411,-2.417l0,-11.172c0,-2.276 1.328,-4.302 3.375,-5.156c11.089,-4.625 21.604,-10.536 29.354,-24.458c22.677,-6.208 30.906,-37.125 33.802,-55.286c0.505,-3.182 -0.401,-6.411 -2.49,-8.865" style="fill:#231f20;fill-rule:nonzero;"/></g></svg>