<?xml version="1.0" encoding="UTF-8" standalone="no"?><!DOCTYPE svg PUBLIC "-//W3C//DTD SVG 1.1//EN" "http://www.w3.org/Graphics/SVG/1.1/DTD/svg11.dtd"><svg width="100%" height="100%" viewBox="0 0 200 200" version="1.1" xmlns="http://www.w3.org/2000/svg" xmlns:xlink="http://www.w3.org/1999/xlink" xml:space="preserve" xmlns:serif="http://www.serif.com/" style="fill-rule:evenodd;clip-rule:evenodd;stroke-linejoin:round;stroke-miterlimit:2;"><path d="M194.214,93.01l-83.974,-88.224c-1.469,-1.542 -3.182,-2.729 -5.141,-3.568c-1.958,-0.839 -4.005,-1.26 -6.135,-1.266c-2.13,-0.005 -4.177,0.411 -6.141,1.25c-1.958,0.839 -3.672,2.031 -5.135,3.583c-27.984,29.417 -55.974,58.828 -83.969,88.245c-0.703,0.74 -1.281,1.557 -1.74,2.464c-0.464,0.906 -0.781,1.859 -0.958,2.859c-0.182,1 -0.214,2.005 -0.099,3.016c0.12,1.01 0.375,1.979 0.781,2.911c0.401,0.937 0.927,1.792 1.583,2.568c0.651,0.781 1.406,1.448 2.255,2.01c0.849,0.557 1.76,0.984 2.74,1.276c0.974,0.292 1.969,0.432 2.99,0.432l4.349,0l0,73.698c0,1.031 0.104,2.052 0.307,3.062c0.203,1.01 0.5,1.99 0.896,2.943c0.396,0.948 0.88,1.854 1.453,2.708c0.573,0.859 1.229,1.651 1.958,2.38c0.729,0.729 1.526,1.38 2.38,1.948c0.859,0.573 1.766,1.057 2.719,1.453c0.953,0.396 1.938,0.693 2.953,0.896c1.01,0.203 2.031,0.302 3.068,0.307l135.229,0c1.031,-0.005 2.052,-0.104 3.068,-0.307c1.01,-0.203 1.995,-0.5 2.948,-0.896c0.953,-0.396 1.859,-0.88 2.719,-1.453c0.859,-0.573 1.651,-1.224 2.38,-1.948c0.734,-0.729 1.385,-1.521 1.958,-2.38c0.573,-0.854 1.057,-1.76 1.453,-2.708c0.396,-0.953 0.698,-1.932 0.901,-2.943c0.203,-1.01 0.302,-2.031 0.307,-3.062l0,-73.719l4.344,0c1.016,0 2.016,-0.146 2.99,-0.438c0.974,-0.292 1.891,-0.714 2.74,-1.276c0.849,-0.557 1.604,-1.224 2.255,-2.005c0.656,-0.776 1.182,-1.635 1.583,-2.568c0.406,-0.932 0.661,-1.906 0.781,-2.917c0.115,-1.005 0.083,-2.01 -0.099,-3.01c-0.177,-1 -0.495,-1.953 -0.958,-2.859c-0.458,-0.906 -1.042,-1.729 -1.74,-2.464Zm-121.135,97.526l0,-74.479c0,-0.505 0.099,-0.99 0.292,-1.453c0.193,-0.469 0.469,-0.88 0.823,-1.234c0.359,-0.359 0.771,-0.63 1.24,-0.823c0.469,-0.193 0.953,-0.292 1.458,-0.292l44.151,0c0.505,0 0.99,0.099 1.453,0.292c0.469,0.193 0.88,0.464 1.24,0.823c0.354,0.354 0.63,0.766 0.823,1.234c0.193,0.464 0.292,0.948 0.292,1.453l0,74.479l-51.771,0Zm113.583,-89.25l-8.984,0c-0.615,0 -1.208,0.115 -1.776,0.349c-0.568,0.234 -1.073,0.573 -1.505,1.005c-0.438,0.432 -0.771,0.938 -1.01,1.505c-0.234,0.562 -0.354,1.156 -0.354,1.771l0,78.349c0,0.422 -0.042,0.839 -0.125,1.255c-0.083,0.411 -0.208,0.818 -0.37,1.203c-0.161,0.391 -0.359,0.76 -0.599,1.115c-0.234,0.349 -0.5,0.672 -0.802,0.974c-0.297,0.297 -0.625,0.562 -0.974,0.797c-0.354,0.24 -0.724,0.438 -1.115,0.599c-0.391,0.161 -0.792,0.286 -1.208,0.37c-0.417,0.083 -0.833,0.125 -1.255,0.125l-32.448,0l0,-74.646c0,-0.859 -0.089,-1.708 -0.255,-2.547c-0.167,-0.844 -0.417,-1.656 -0.745,-2.453c-0.328,-0.792 -0.729,-1.542 -1.208,-2.255c-0.479,-0.714 -1.021,-1.37 -1.63,-1.979c-0.604,-0.604 -1.266,-1.146 -1.979,-1.625c-0.719,-0.474 -1.469,-0.875 -2.266,-1.203c-0.792,-0.328 -1.615,-0.578 -2.453,-0.745c-0.844,-0.167 -1.698,-0.25 -2.557,-0.25l-44.151,0c-0.859,0 -1.714,0.083 -2.552,0.25c-0.844,0.167 -1.661,0.417 -2.458,0.745c-0.792,0.328 -1.547,0.729 -2.26,1.203c-0.719,0.479 -1.38,1.021 -1.984,1.625c-0.609,0.609 -1.151,1.266 -1.63,1.979c-0.479,0.714 -0.88,1.464 -1.208,2.255c-0.328,0.797 -0.578,1.609 -0.745,2.453c-0.167,0.839 -0.25,1.688 -0.25,2.547l0,74.651l-32.453,0c-0.427,0 -0.844,-0.042 -1.26,-0.125c-0.411,-0.083 -0.818,-0.208 -1.208,-0.37c-0.391,-0.161 -0.76,-0.359 -1.115,-0.599c-0.349,-0.234 -0.677,-0.5 -0.974,-0.797c-0.302,-0.302 -0.568,-0.625 -0.802,-0.974c-0.234,-0.354 -0.438,-0.724 -0.599,-1.115c-0.161,-0.385 -0.286,-0.792 -0.37,-1.203c-0.083,-0.417 -0.125,-0.833 -0.125,-1.255l0,-78.333c0,-0.615 -0.12,-1.203 -0.354,-1.771c-0.234,-0.568 -0.573,-1.068 -1.005,-1.505c-0.438,-0.432 -0.938,-0.766 -1.505,-1c-0.573,-0.234 -1.161,-0.354 -1.781,-0.354l-8.99,0c-0.495,0 -0.839,-0.229 -1.031,-0.682c-0.198,-0.453 -0.125,-0.859 0.219,-1.219c28,-29.411 55.995,-58.828 83.974,-88.245c0.297,-0.297 0.625,-0.562 0.974,-0.797c0.349,-0.234 0.719,-0.432 1.109,-0.594c0.391,-0.167 0.792,-0.286 1.208,-0.37c0.411,-0.083 0.828,-0.12 1.25,-0.12c0.422,0 0.844,0.036 1.255,0.12c0.417,0.083 0.818,0.203 1.208,0.37c0.385,0.161 0.755,0.359 1.109,0.594c0.349,0.234 0.672,0.5 0.969,0.797l83.979,88.224c0.276,0.26 0.38,0.578 0.302,0.953c-0.047,0.276 -0.172,0.5 -0.385,0.682c-0.214,0.177 -0.458,0.266 -0.74,0.266Z" style="fill-rule:nonzero;"/></svg>