<?xml version="1.0" encoding="UTF-8" standalone="no"?><!DOCTYPE svg PUBLIC "-//W3C//DTD SVG 1.1//EN" "http://www.w3.org/Graphics/SVG/1.1/DTD/svg11.dtd"><svg width="100%" height="100%" viewBox="0 0 200 200" version="1.1" xmlns="http://www.w3.org/2000/svg" xmlns:xlink="http://www.w3.org/1999/xlink" xml:space="preserve" xmlns:serif="http://www.serif.com/" style="fill-rule:evenodd;clip-rule:evenodd;stroke-linejoin:round;stroke-miterlimit:2;"><path d="M80.641,0.484c-1.349,0.042 -2.703,0.198 -4.052,0.479c-10.536,2.021 -20.87,9.75 -25.635,21.766c-4.615,0.234 -9.026,1.344 -13.036,3.604c-9.026,5.115 -15.026,15.859 -15.188,32.115c-4.208,2.062 -7.708,4.995 -10.214,8.724c-6.557,9.63 -6.437,23.391 1.432,36.51c-9.141,7.656 -13.953,17.766 -13.234,27.911c0.714,10.745 7.63,21.052 20.109,28.109c1.151,5.672 3.458,10.469 6.875,14.234c7.115,7.927 17.969,11.219 29.214,11.38c3.896,5.469 8.943,9.318 14.589,11.219c9.62,3.292 20.625,0.594 28.536,-8.01c7.948,8.604 18.922,11.302 28.536,8.01c5.604,-1.901 10.693,-5.786 14.547,-11.219c11.25,-0.161 22.099,-3.453 29.214,-11.38c3.38,-3.766 5.724,-8.562 6.875,-14.234c12.484,-7.057 19.396,-17.365 20.115,-28.109c0.672,-10.146 -4.135,-20.255 -13.234,-27.911c7.87,-13.083 7.948,-26.88 1.427,-36.51c-2.5,-3.729 -6.042,-6.661 -10.214,-8.724c-0.156,-16.255 -6.12,-27.036 -15.141,-32.115c-4.016,-2.26 -8.469,-3.37 -13.036,-3.604c-4.812,-12.016 -15.104,-19.745 -25.641,-21.766c-1.349,-0.281 -2.698,-0.401 -4.094,-0.479c-7.391,-0.276 -14.625,2.578 -19.276,8.604c-4.807,-6.068 -12.083,-8.922 -19.474,-8.604Zm35.849,7.177c0.797,-0.042 1.63,-0.042 2.469,0c0.99,0.078 1.984,0.198 3.016,0.396c7.354,1.427 15.026,6.703 19.198,15.068c-3.495,0.516 -6.995,1.464 -10.37,2.776c-4.375,1.823 -1.828,8.365 2.661,6.776c9.021,-3.526 18.323,-3.807 25,-0.036c6.12,3.448 10.729,10.464 11.365,23.391c-6.12,-1.229 -13.115,-0.953 -20.703,1.464c-4.693,1.469 -2.427,8.484 2.224,6.943c14.786,-4.719 24.958,-0.677 30.047,6.776c5.089,7.453 5.245,19.151 -3.141,31.203c-1.391,1.865 -0.677,4.557 1.474,5.51c8.781,6.62 12.797,15.026 12.281,23.115c-0.479,6.896 -4.255,13.833 -12.167,19.547c-0.115,-4.443 -0.755,-9.198 -2.182,-14.432c-0.401,-1.589 -1.828,-2.698 -3.458,-2.734c-2.464,-0.042 -4.255,2.297 -3.536,4.635c4.214,15.266 1.667,24.818 -3.818,30.927c-4.531,5.031 -11.568,7.927 -19.672,8.719c1.469,-3.568 2.583,-7.531 3.141,-11.891c0.318,-2.182 -1.354,-4.125 -3.542,-4.167c-1.865,-0.036 -3.458,1.391 -3.656,3.255c-1.745,13.797 -8.979,21.964 -16.932,24.656c-7.667,2.62 -16.172,0.438 -22.531,-8.203l0,-39.052c3.854,-6.266 8.385,-9.042 15.776,-8.568c4.969,0.438 5.448,-7.057 0.479,-7.255c-6.281,-0.396 -11.807,1.427 -16.255,4.917l0,-114.219c0,-0.078 0.036,-0.161 0.036,-0.198c2.464,-6.104 7.156,-9 12.797,-9.318Zm-35.568,0c6.755,-0.438 12.516,2.339 15.38,9.396l0,53.839c-4.453,-3.526 -9.979,-5.432 -16.339,-4.995c-4.729,0.438 -4.25,7.453 0.479,7.255c7.432,-0.474 12.005,2.302 15.859,8.646l0,99.708c-6.401,8.604 -14.906,10.823 -22.578,8.208c-7.906,-2.698 -15.182,-10.865 -16.932,-24.661c-0.198,-1.901 -1.828,-3.328 -3.776,-3.25c-2.146,0.078 -3.734,2.021 -3.453,4.161c0.552,4.359 1.667,8.328 3.135,11.896c-8.104,-0.833 -15.182,-3.688 -19.714,-8.766c-5.484,-6.104 -7.948,-15.656 -3.776,-30.922c0.557,-1.943 -0.552,-3.964 -2.464,-4.521c-0.396,-0.12 -0.792,-0.156 -1.193,-0.156c-1.589,0.078 -2.979,1.188 -3.375,2.734c-1.432,5.234 -2.109,9.99 -2.187,14.432c-7.87,-5.708 -11.688,-12.646 -12.161,-19.547c-0.557,-8.286 3.656,-16.927 12.917,-23.63c1.667,-1.151 2.068,-3.406 0.911,-5.073c-0.115,-0.161 -0.234,-0.318 -0.396,-0.474c-8.026,-11.854 -7.87,-23.312 -2.859,-30.688c5.083,-7.453 15.302,-11.536 30.083,-6.781c4.734,1.667 7.036,-5.552 2.229,-6.938c-7.594,-2.417 -14.625,-2.734 -20.75,-1.469c0.635,-12.922 5.25,-19.943 11.37,-23.391c6.677,-3.766 15.979,-3.49 25,0.042c4.531,1.781 7.193,-5.036 2.661,-6.818c-3.375,-1.312 -6.875,-2.26 -10.375,-2.776c4.177,-8.365 11.849,-13.641 19.198,-15.068c1.115,-0.198 2.109,-0.318 3.104,-0.396Z" style="fill-rule:nonzero;"/><path d="M162.833,73.078l-0.354,0c-1.193,0.078 -2.266,0.792 -2.865,1.823c-4.531,7.693 -9.698,12.052 -15.38,14.354c-5.682,2.297 -12.083,2.536 -19.318,1.109c-1.948,-0.516 -3.932,0.635 -4.448,2.578c-0.521,1.943 0.635,3.922 2.583,4.438c0.156,0.042 0.318,0.078 0.474,0.078c5.406,1.073 10.734,1.271 15.818,0.479c4.729,11.177 14.589,17.125 26.073,15.896c2.031,-0.12 3.542,-1.823 3.458,-3.807c-0.078,-1.979 -1.828,-3.526 -3.812,-3.448c-0.12,0 -0.24,0 -0.359,0.042c-8.547,0.911 -14.589,-2.302 -18.203,-10.469c0.198,-0.078 0.396,-0.12 0.557,-0.198c7.312,-2.932 13.714,-8.641 18.917,-17.365c1.036,-1.703 0.516,-3.964 -1.229,-4.995c-0.599,-0.318 -1.234,-0.516 -1.911,-0.516Z" style="fill-rule:nonzero;"/><path d="M125.036,113.24c-3.26,0.198 -4.609,4.281 -2.104,6.385c4.37,3.802 7.469,7.766 8.781,12.13c1.271,4.12 1.036,8.802 -1.547,14.786c-5.01,2.339 -9.62,5.948 -13.792,10.589c-1.354,1.505 -1.234,3.802 0.276,5.151c1.51,1.349 3.818,1.229 5.167,-0.276c5.047,-5.589 10.292,-9.12 15.896,-10.547c5.568,-1.427 11.609,-0.87 18.682,2.339c1.828,0.875 3.974,0.12 4.849,-1.703c0.875,-1.823 0.12,-3.964 -1.708,-4.839c-0.042,-0.036 -0.078,-0.036 -0.12,-0.036c-7.156,-3.255 -14.109,-4.323 -20.589,-3.333c1.271,-5.115 1.193,-9.911 -0.12,-14.234c-1.865,-6.141 -6,-11.141 -10.969,-15.5c-0.755,-0.635 -1.75,-0.953 -2.703,-0.911Z" style="fill-rule:nonzero;"/><path d="M114.781,29.031c-2.026,-0.042 -3.656,1.547 -3.693,3.568l0,0.359c0.755,10.464 6.714,17.958 14.625,20.891c7.906,2.896 17.406,1.589 25.792,-3.688c1.714,-1.068 2.229,-3.328 1.156,-5.036c-1.073,-1.703 -3.339,-2.219 -5.047,-1.146c-6.719,4.24 -13.911,5.031 -19.318,3.052c-5.406,-1.984 -9.339,-6.464 -9.896,-14.589c-0.161,-1.906 -1.708,-3.411 -3.62,-3.411Z" style="fill-rule:nonzero;"/><path d="M36.958,73.078c-2.026,0.078 -3.573,1.781 -3.453,3.807c0.036,0.594 0.198,1.188 0.516,1.703c5.167,8.724 11.604,14.432 18.917,17.365c0.198,0.078 0.396,0.12 0.557,0.198c-3.656,8.167 -9.698,11.38 -18.203,10.469c-1.99,-0.281 -3.854,1.068 -4.135,3.052c-0.276,1.979 1.073,3.844 3.062,4.125c0.078,0 0.198,0.036 0.276,0.036c11.448,1.193 21.344,-4.755 26.073,-15.896c5.089,0.792 10.417,0.594 15.823,-0.479c1.984,-0.234 3.417,-2.057 3.177,-4.042c-0.24,-1.984 -2.068,-3.411 -4.052,-3.172c-0.161,0.042 -0.318,0.042 -0.479,0.078c-7.234,1.427 -13.672,1.193 -19.354,-1.109c-5.688,-2.297 -10.812,-6.661 -15.344,-14.354c-0.755,-1.146 -2.026,-1.823 -3.38,-1.781Z" style="fill-rule:nonzero;"/><path d="M74.401,113.24c-0.797,0.042 -1.589,0.396 -2.188,0.911c-4.969,4.323 -9.099,9.359 -10.969,15.5c-1.312,4.323 -1.391,9.083 -0.12,14.234c-6.479,-0.99 -13.432,0.078 -20.589,3.333c-1.865,0.75 -2.74,2.891 -1.984,4.755c0.755,1.865 2.901,2.734 4.766,1.984c0.083,-0.042 0.161,-0.083 0.24,-0.12c7.078,-3.214 13.115,-3.766 18.682,-2.339c5.562,1.427 10.849,4.953 15.896,10.542c1.276,1.547 3.578,1.745 5.13,0.479c1.547,-1.271 1.75,-3.568 0.474,-5.115c-0.036,-0.078 -0.12,-0.12 -0.198,-0.198c-4.172,-4.641 -8.781,-8.25 -13.792,-10.625c-2.583,-5.99 -2.781,-10.667 -1.51,-14.792c1.312,-4.359 4.411,-8.323 8.786,-12.13c2.661,-2.26 0.875,-6.661 -2.625,-6.422Z" style="fill-rule:nonzero;"/><path d="M85.052,29.031c-1.87,0.078 -3.38,1.583 -3.495,3.448c-0.557,8.167 -4.495,12.609 -9.901,14.589c-5.401,1.984 -12.635,1.193 -19.354,-3.052c-1.667,-1.109 -3.932,-0.672 -5.047,0.953c-1.115,1.667 -0.677,3.927 0.953,5.036c0.078,0.036 0.161,0.078 0.198,0.12c8.349,5.271 17.885,6.578 25.797,3.682c7.906,-2.891 13.87,-10.427 14.625,-20.891c0.161,-1.984 -1.312,-3.766 -3.339,-3.927c-0.12,0 -0.276,0 -0.438,0.042Z" style="fill-rule:nonzero;"/></svg>