<?xml version="1.0" encoding="UTF-8" standalone="no"?><!DOCTYPE svg PUBLIC "-//W3C//DTD SVG 1.1//EN" "http://www.w3.org/Graphics/SVG/1.1/DTD/svg11.dtd"><svg width="100%" height="100%" viewBox="0 0 200 200" version="1.1" xmlns="http://www.w3.org/2000/svg" xmlns:xlink="http://www.w3.org/1999/xlink" xml:space="preserve" xmlns:serif="http://www.serif.com/" style="fill-rule:evenodd;clip-rule:evenodd;"><g><g><clipPath id="_clip1"><path d="M98.479,71.505c-15.734,0 -28.49,12.755 -28.49,28.49c0,15.74 12.755,28.495 28.49,28.495c15.734,0 28.495,-12.755 28.495,-28.495c0,-15.734 -12.76,-28.49 -28.495,-28.49Z"/></clipPath><g clip-path="url(#_clip1)"><path d="M98.479,71.505c-15.734,0 -28.49,12.755 -28.49,28.49c0,15.74 12.755,28.495 28.49,28.495c15.734,0 28.495,-12.755 28.495,-28.495c0,-15.734 -12.76,-28.49 -28.495,-28.49Z" style="fill:none;fill-rule:nonzero;stroke:#000;stroke-width:20px;"/></g></g></g><path d="M137.833,60.177c24.615,25.823 25.703,52.625 3.266,80.406" style="fill:none;fill-rule:nonzero;stroke:#000;stroke-width:10px;stroke-linecap:round;"/><path d="M58.516,140.182c-23.521,-26.823 -23.495,-53.646 0.078,-80.469" style="fill:none;fill-rule:nonzero;stroke:#000;stroke-width:10px;stroke-linecap:round;"/><path d="M32.167,163.057c-32.26,-41.906 -32.521,-84.031 -0.786,-126.37" style="fill:none;fill-rule:nonzero;stroke:#000;stroke-width:10px;stroke-linecap:round;"/><path d="M168.724,36.865c31.974,42.125 31.953,84.25 -0.068,126.37" style="fill:none;fill-rule:nonzero;stroke:#000;stroke-width:10px;stroke-linecap:round;"/></svg>