<?xml version="1.0" encoding="UTF-8" standalone="no"?><!DOCTYPE svg PUBLIC "-//W3C//DTD SVG 1.1//EN" "http://www.w3.org/Graphics/SVG/1.1/DTD/svg11.dtd"><svg width="100%" height="100%" viewBox="0 0 200 200" version="1.1" xmlns="http://www.w3.org/2000/svg" xmlns:xlink="http://www.w3.org/1999/xlink" xml:space="preserve" xmlns:serif="http://www.serif.com/" style="fill-rule:evenodd;clip-rule:evenodd;stroke-linejoin:round;stroke-miterlimit:2;"><g><clipPath id="_clip1"><rect x="0.62" y="20" width="199" height="160"/></clipPath><g clip-path="url(#_clip1)"><path d="M99.688,20c-1.203,0.083 -2.271,0.516 -3.193,1.292l-44.193,38.62c-0.276,0.24 -0.526,0.5 -0.75,0.786c-0.219,0.292 -0.411,0.594 -0.578,0.922c-0.161,0.323 -0.292,0.661 -0.391,1.01c-0.094,0.349 -0.156,0.708 -0.182,1.068c-0.026,0.365 -0.016,0.724 0.031,1.083c0.042,0.365 0.125,0.714 0.24,1.062c0.115,0.344 0.26,0.672 0.438,0.99c0.182,0.312 0.391,0.609 0.63,0.885c0.24,0.276 0.5,0.521 0.786,0.745c0.286,0.224 0.594,0.417 0.922,0.578c0.323,0.161 0.661,0.292 1.01,0.391c0.354,0.094 0.708,0.156 1.073,0.182c0.359,0.026 0.724,0.016 1.083,-0.031c0.365,-0.042 0.714,-0.125 1.062,-0.24c0.344,-0.115 0.672,-0.26 0.99,-0.443c0.318,-0.177 0.609,-0.385 0.885,-0.625l35.047,-30.604l0,98.193c-0.005,0.365 0.026,0.724 0.089,1.083c0.068,0.359 0.172,0.708 0.307,1.052c0.135,0.339 0.307,0.661 0.505,0.964c0.203,0.307 0.432,0.589 0.688,0.849c0.255,0.26 0.536,0.495 0.839,0.698c0.302,0.208 0.625,0.38 0.964,0.521c0.339,0.141 0.687,0.245 1.042,0.318c0.359,0.073 0.724,0.109 1.089,0.109c0.37,0 0.729,-0.036 1.089,-0.109c0.359,-0.073 0.708,-0.177 1.047,-0.318c0.333,-0.141 0.656,-0.313 0.958,-0.521c0.302,-0.203 0.583,-0.437 0.844,-0.698c0.255,-0.26 0.484,-0.542 0.682,-0.849c0.203,-0.302 0.37,-0.625 0.51,-0.964c0.135,-0.344 0.234,-0.693 0.302,-1.052c0.068,-0.359 0.099,-0.719 0.094,-1.083l0,-98.193l35.042,30.604c0.276,0.24 0.573,0.448 0.891,0.625c0.312,0.182 0.646,0.328 0.99,0.443c0.344,0.115 0.698,0.193 1.057,0.24c0.359,0.047 0.724,0.052 1.089,0.026c0.359,-0.026 0.719,-0.083 1.068,-0.182c0.349,-0.094 0.687,-0.224 1.016,-0.385c0.323,-0.167 0.63,-0.359 0.917,-0.578c0.286,-0.224 0.547,-0.474 0.786,-0.75c0.24,-0.271 0.448,-0.568 0.63,-0.885c0.177,-0.312 0.323,-0.646 0.438,-0.99c0.115,-0.344 0.198,-0.698 0.24,-1.057c0.047,-0.359 0.057,-0.719 0.031,-1.083c-0.026,-0.359 -0.089,-0.719 -0.182,-1.068c-0.099,-0.349 -0.229,-0.688 -0.391,-1.01c-0.161,-0.328 -0.354,-0.63 -0.578,-0.922c-0.224,-0.286 -0.474,-0.547 -0.75,-0.786l-44.193,-38.62c-1.172,-0.995 -2.521,-1.427 -4.057,-1.292Zm-94.083,93.708c-0.682,0.073 -1.333,0.271 -1.948,0.589c-0.609,0.318 -1.146,0.74 -1.599,1.255c-0.458,0.521 -0.802,1.104 -1.042,1.75c-0.234,0.651 -0.344,1.318 -0.328,2.01l0,44.135c0,9.073 7.484,16.552 16.573,16.552l165.724,0c9.083,0 16.573,-7.479 16.573,-16.552l0,-44.135c0.005,-0.37 -0.026,-0.729 -0.094,-1.089c-0.068,-0.359 -0.167,-0.708 -0.307,-1.047c-0.135,-0.344 -0.302,-0.661 -0.505,-0.969c-0.198,-0.307 -0.427,-0.589 -0.682,-0.849c-0.26,-0.26 -0.542,-0.495 -0.844,-0.698c-0.302,-0.203 -0.625,-0.38 -0.958,-0.521c-0.339,-0.141 -0.688,-0.245 -1.047,-0.318c-0.359,-0.073 -0.724,-0.109 -1.089,-0.109c-0.365,0 -0.729,0.036 -1.089,0.109c-0.354,0.073 -0.703,0.177 -1.042,0.318c-0.339,0.141 -0.661,0.318 -0.964,0.521c-0.302,0.203 -0.583,0.438 -0.839,0.698c-0.255,0.26 -0.484,0.542 -0.688,0.849c-0.198,0.307 -0.37,0.625 -0.505,0.969c-0.135,0.339 -0.24,0.688 -0.307,1.047c-0.068,0.359 -0.094,0.719 -0.089,1.089l0,44.135c0,3.151 -2.37,5.516 -5.526,5.516l-165.724,0c-3.156,0 -5.526,-2.365 -5.526,-5.516l0,-44.135c0.01,-0.396 -0.026,-0.786 -0.099,-1.172c-0.073,-0.385 -0.187,-0.755 -0.344,-1.12c-0.156,-0.359 -0.349,-0.698 -0.573,-1.021c-0.229,-0.318 -0.49,-0.615 -0.776,-0.88c-0.292,-0.266 -0.604,-0.495 -0.948,-0.693c-0.339,-0.198 -0.693,-0.359 -1.068,-0.479c-0.375,-0.125 -0.755,-0.203 -1.146,-0.245c-0.396,-0.042 -0.786,-0.042 -1.177,0.005Z" style="fill-rule:nonzero;"/></g></g></svg>